/* XPM */
static char *da2fcaa908564d74b4b67400fecfe0aa71E1vHc76wwdMrHI[] = {
/* columns rows colors chars-per-pixel */
"50 50 136 2 ",
"   c #483b3a",
".  c #EE8E2E",
"X  c #EF932F",
"o  c #F0952F",
"O  c #EF9530",
"+  c #EF9931",
"@  c #EE9539",
"#  c #F09C31",
"$  c #F09B3A",
"%  c #F2A233",
"&  c #F3AA35",
"*  c #F2A43B",
"=  c #F4AE3B",
"-  c #F5B137",
";  c #F5B538",
":  c #F7BD3A",
">  c #F7C03B",
",  c #F9C63C",
"<  c #FACB3E",
"1  c #F5B74F",
"2  c #F6BB4B",
"3  c #F1A95C",
"4  c #F4B254",
"5  c #F6BE5D",
"6  c #F5BB66",
"7  c #F4B86E",
"8  c #F3B575",
"9  c #F7C245",
"0  c #F8C542",
"q  c #FACB44",
"w  c #F8C64A",
"e  c #FACD4B",
"r  c #F7C254",
"t  c #FACD52",
"y  c #F6C059",
"u  c #F9CD5A",
"i  c #FAD053",
"p  c #FAD25B",
"a  c #F8CA63",
"s  c #F9CD6A",
"d  c #FAD464",
"f  c #FAD66C",
"g  c #F7C971",
"h  c #F9CF70",
"j  c #F7C97C",
"k  c #FAD377",
"l  c #FAD874",
"z  c #F9D17E",
"x  c #FBDA7D",
"c  c #F7C982",
"v  c #F6C98E",
"b  c #FBDB83",
"n  c #F8D28D",
"m  c #FBDE8A",
"M  c #F6C993",
"N  c #F6C999",
"B  c #F8D394",
"V  c #FBDE91",
"C  c #FBE194",
"Z  c #FCE29C",
"A  c #F8D4A2",
"S  c #F8D5AA",
"D  c #F8D6B1",
"F  c #FBE5A5",
"G  c #FBE5A7",
"H  c #FCE4A5",
"J  c #FBE3A3",
"K  c #FBE5A8",
"L  c #FBE5A9",
"P  c #FBE6AB",
"I  c #FBE7AC",
"U  c #FBE7AD",
"Y  c #FBE7AE",
"T  c #FCE6AD",
"R  c #FCE7AF",
"E  c #FBE5AE",
"W  c #FBE7B0",
"Q  c #FBE8B1",
"!  c #FBE8B2",
"~  c #FCE8B3",
"^  c #FBE9B4",
"/  c #FCE9B6",
"(  c #FCE9B7",
")  c #FCE9B8",
"_  c #FCE9BA",
"`  c #FCEABA",
"'  c #FCEBBD",
"]  c #FCEBBE",
"[  c #FCEABA",
"{  c #FAE6C2",
"}  c #FCEBC0",
"|  c #FCECC1",
" . c #FCECC2",
".. c #FCECC3",
"X. c #FCEDC3",
"o. c #FCEDC4",
"O. c #FCEDC5",
"+. c #FCECC4",
"@. c #FBE7CB",
"#. c #FCEDC8",
"$. c #FCEECC",
"%. c #FDEECC",
"&. c #FCEECD",
"*. c #FDEECD",
"=. c #FCEFCE",
"-. c #FCEFCF",
";. c #FCEECC",
":. c #FDF0CE",
">. c #FCEFD0",
",. c #FBE9D5",
"<. c #FBEAD5",
"1. c #FBEBD4",
"2. c #FCF0D1",
"3. c #FDF0D3",
"4. c #FCF1D7",
"5. c #FDF2D7",
"6. c #FDF0D3",
"7. c #FCF1D8",
"8. c #FCF2D8",
"9. c #FDF3DA",
"0. c #FDF3E1",
"q. c #FCF4E2",
"w. c #FDF4E2",
"e. c #FCF5E2",
"r. c #FDF5E2",
"t. c #FCF4E3",
"y. c #FDF4E3",
"u. c #FDF4E2",
"i. c #FCF6EC",
"p. c #FCF7EC",
"a. c #FDF7EC",
"s. c #FDF6ED",
"d. c #FCF7ED",
"f. c #FDF7ED",
"g. c #FDF7ED",
"h. c #FDF8ED",
/* pixels */
"                                                                                                    ",
"                                                                                                    ",
"                                                                                                    ",
"                                                                                                    ",
"                                                                                                    ",
"                                                                                                    ",
"                                                                                                    ",
"                                        . . @ 3 8 N D ,.s.s.                                        ",
"                                        . . $ 3 8 N D ,.s.s.s.                                      ",
"                                      . . . @ 3 8 N D ,.s.s.h.                                      ",
"                                    O O O O $ 3 7 v A { 8.8.8.8.                                    ",
"                                    # # # % * 4 6 j n J / ` ] O.&.                                  ",
"                                o # # % & & - 1 5 s h m C Z P ~ O.2.                                ",
"                            . . O # % & & - ; 2 r a s l b m Z P ] &.s.h.                            ",
"                          . . . o # & & ; : : 0 w e t p p l m Z ` &.s.h.s.                          ",
"                          . . . o # & & ; , < , q 0 q e e d b Z / ;.s.s.p.s.                        ",
"                        X X X o # % & ; : , < < < < < < < p l m H ] 6.5.8.8.                        ",
"                        # # # # % & ; ; > , < < < < < < < i f x C P ......;.:.                      ",
"                    o # # % & & & ; ; : > < < < < < < < < i d f x m J H I ~ ] 2.                    ",
"                  . X # % & & & ; ; : : > < < < < < < < < e p d l x m C Z I ` :.e.                  ",
"              . . . o # % & ; : : : > > < < < < < < < < < q i i p d f l m Z Q :.e.h.s.              ",
"              . . . O % & - : > , , < < < < < < < < < < < q < q q q q p x m I ;.e.s.p.p.            ",
"              . . . O % & - : , < < < < < < < < < < < < < < < < < < < i l m P ;.w.s.h.s.            ",
"              . . . O % & - , < < < < < < < < < < < < < < < < < < < < i l m P ;.w.s.s.s.            ",
"              . . . O * & - > 0 < < < < < < < < < < < < < < < < < < < i l m P ;.q.s.p.s.            ",
"              . . . O % & - : , < < < < < < < < < < < < < < < < < < < i l m P ;.q.h.p.s.            ",
"              . . . O % & - : , < < < < < < < < < < < < < < < < < < < i l m G ;.q.h.p.s.            ",
"              . . . O % & - , , < < < < < < < < < < < < < < < < < < < i l m P ;.q.s.s.s.            ",
"              . . . O # & ; : , < < < < < < < < < < < < < < < < < < < i l m P ;.q.s.p.s.            ",
"              . . o O % & ; > , < < < < < < < < < < < < < < < < < < < i l m P ;.q.h.p.s.            ",
"              . . . O # & ; , < < < < < < < < < < < < < < < < < < < < i l m P ;.q.s.p.s.            ",
"              . . . O # & ; < < < < < < < < < < < < < < < < < < < < < i l m P -.q.h.p.s.            ",
"              . . . O % & ; : , < < < < < < < < < < < < < < < < < < < i l m P ;.q.p.p.s.            ",
"              . . . O # & - : < < < < < < < < < < < < < < < < < < < < i l m P ;.q.s.p.s.            ",
"              . . . O % & ; : < < < < < < < < < < < < < < < < q < < < i l m P :.q.h.p.s.            ",
"              . . . O % % = : : , , , , < < < < < < < < < q q q e i i d x C U :.e.s.s.              ",
"                . . o # % & ; ; : : : : , < < < < < < < < q i p d f l x C Z ^ :.e.s.h.              ",
"                    o # % % & & ; ; : : > < < < < < < < < e p d x b C Z F I ] 2.y.                  ",
"                      # # % % % & & ; : > < < < < < < < < i d l m C I I ^ ` X.                      ",
"                        # X # # % % & ; : , < < < < < < < p l m Z Q :.:.:.2.                        ",
"                          X X X # # & ; : > < < < < < < < p x m I ..e.e.y.e.                        ",
"                          . . . X # % ; ; > , 0 q w e t t f m Z ` &.s.d.s.                          ",
"                            . . o # % & ; : : 9 w t u d f x C J _ -.s.h.h.                          ",
"                              . o # % & & & ; 2 5 a h x m C J I } >.s.                              ",
"                                X + # % % % = 1 5 g z V J H W ` O.6.                                ",
"                                    + # # # * 4 6 c B D  .+.O.;.                                    ",
"                                      X X X $ 3 8 M S @.e.e.e.y.                                    ",
"                                      . . . @ 3 8 N D <.h.s.s.                                      ",
"                                      . . . @ 3 8 N D ,.s.s.s.                                      ",
"                                      . . . @ 3 8 N D ,.s.s.s.                                      "
};
