/* XPM */
static char *_d10cc47298e432bbb69c39a2dbebc2aVMIWX6KHGqegtxzk[] = {
/* columns rows colors chars-per-pixel */
"50 50 141 2 ",
"   c None",
".  c #101010",
"X  c #181312",
"o  c #1C1B1B",
"O  c #211B19",
"+  c #28181B",
"@  c #34181E",
"#  c #3B1D1D",
"$  c #24211F",
"%  c #37221C",
"&  c #3C231B",
"*  c #232222",
"=  c #292625",
"-  c #2B2827",
";  c #262C2B",
":  c #2D2929",
">  c #332324",
",  c #3B2524",
"<  c #3E2923",
"1  c #332D2D",
"2  c #37302E",
"3  c #39312F",
"4  c #2F2D34",
"5  c #2B3736",
"6  c #2D3C3A",
"7  c #343333",
"8  c #3B3332",
"9  c #3A3834",
"0  c #41211C",
"q  c #48251B",
"w  c #592C1E",
"e  c #442925",
"r  c #4A2D24",
"t  c #442329",
"y  c #542C25",
"u  c #5F2E20",
"i  c #54252A",
"p  c #5E222E",
"a  c #592A29",
"s  c #553025",
"d  c #423736",
"f  c #433936",
"g  c #463B39",
"h  c #493C3A",
"j  c #622F20",
"k  c #63242E",
"l  c #65282D",
"z  c #742F2C",
"x  c #663223",
"c  c #6B3626",
"v  c #6F3329",
"b  c #773724",
"n  c #753827",
"m  c #75312C",
"M  c #7D352B",
"N  c #2F403F",
"B  c #4D413E",
"V  c #51423F",
"C  c #3D3740",
"Z  c #3E615E",
"A  c #4D4642",
"S  c #4E4943",
"D  c #4B4948",
"F  c #554542",
"G  c #594743",
"H  c #554A43",
"J  c #5C4A45",
"K  c #5B4E49",
"L  c #5B524B",
"P  c #585754",
"I  c #604C47",
"U  c #644E49",
"Y  c #66524B",
"T  c #6A534D",
"R  c #625451",
"E  c #6E5650",
"W  c #635B53",
"Q  c #6E5E53",
"!  c #715751",
"~  c #755A54",
"^  c #64625F",
"/  c #6E655C",
"(  c #7A665D",
")  c #72695F",
"_  c #7D6A5D",
"`  c #406764",
"'  c #696764",
"]  c #756B61",
"[  c #7A6F64",
"{  c #7C7267",
"}  c #7E7368",
"|  c #823B26",
" . c #883D27",
".. c #83392A",
"X. c #8A3D29",
"o. c #8F4029",
"O. c #816C5F",
"+. c #826D60",
"@. c #827265",
"#. c #897264",
"$. c #827569",
"%. c #8F7768",
"&. c #857A6D",
"*. c #887C6F",
"=. c #91786A",
"-. c #997F6F",
";. c #8B7F72",
":. c #8D8174",
">. c #908476",
",. c #9C8271",
"<. c #96897A",
"1. c #9D8B7B",
"2. c #A48D7B",
"3. c #AA8D7A",
"4. c #AD917E",
"5. c #4D8480",
"6. c #528E89",
"7. c #599D98",
"8. c #63A19B",
"9. c #68A6A0",
"0. c #7DBAB3",
"q. c #8F8C87",
"w. c #9E9080",
"e. c #A99483",
"r. c #AE9886",
"t. c #AF9A88",
"y. c #B49986",
"u. c #B69C88",
"i. c #B1A18F",
"p. c #BBA28E",
"a. c #BDA793",
"s. c #BFA995",
"d. c #BCAB98",
"f. c #C6AF9A",
"g. c #C7B5A0",
"h. c #D0BBA6",
"j. c #D3BFA9",
"k. c #96D3CB",
"l. c #9BD8D0",
"z. c #D3CFC6",
"x. c #E1DCD3",
/* pixels */
"      * H 3.3.#.- &.j.j.j.d.S * * * * * * * * * * * * * * * * * * * * g i.j.d.S H 3.3.3.3.L *       ",
"      H ( 3.y.e.] { &.&.&.{ H g g : - f f h g 1 * d g h g 3 * 3 h g f F [ &.[ 9 L p.p.u.3._ H 1     ",
"    1 +.3.4.a.g.g./ = * = : U ~ ! 8 8 E ! ~ ~ h : Y ~ ! ~ V * V ! ~ ! U : = = = W g.g.s.e.3.#.1 *   ",
"* H O.,.y.f.$.L L J J J G G G G G 1 1 F F F G 8 = h F F F f * f F G G h - 9 G G K L L [ s.u.#.7 * * ",
"H Y ( 2.e.:.R f d h J U U J f 8 7 = = 7 8 3 8 : * 1 8 8 8 1 $ 1 8 8 2 8 d V U U G 8 f K ;.@.Q H H H ",
"3./ ; 1.:.* H ~ ~ f = d h d - * * * * * * * * * * * * * $ * * * * * * 1 U U h g G ~ ~ J = * g -.3.3.",
"3.1.:.] H 3 B G G 8 * : 1 : =                                           8 8 : 1 f G J V 8 : A r.y.3.",
"y.r.1.A 1 h h f d : o * * *                                             * * * * : 8 8 9 8 1 g <.r.y.",
"h.&.: = 1 g h d * o .                                                             * * * * * * - } h.",
"j.&.$ d f 1 1 1 t + .                                                               * 1 h F g = B / ",
"i.) : V G : = > l @ .                                                               * 1 U T J 1 * * ",
"B g f B G Y 8 < ..q .                                                               * = 1 f h d 1 * ",
"* : h g h h - %  .q .                                                                 * * 1 h h 2 * ",
"= 2 h g 8 * O #  .q .                                                                   * 1 f f : * ",
"9 d g g 8 * y b X.q .                                                                   * * : - = * ",
"8 2 8 8 : o j X...# .                                                                   * * = d 9 f ",
"* $ * $ o . u ..k @ .                                                                     * 7 T ~ ~ ",
"J J H 1 < x M ..k @ .                                                                     * 1 h G F ",
"Y U V 2 < c | ..k @ .                                                                     * : d h h ",
"h 3 = = * $ c ..k @ .                                                                     * : d h h ",
"h 1 = ` ` * e y k @ .                                                                     * - d g h ",
"d 1 ; 7.8.P 7 > p @ .                                                                     * = 8 8 d ",
"= * ; 7.l.x.' > k @ .                                                                     * * = = = ",
"h 9 ; 7.0.q.D > m # .                                                                     * : g h h ",
"! B ; 6.5.* o , X.q .                                                                     * 2 U ! ! ",
"F 8 * 6 6 * o @ X.q .                                                                     * : h V V ",
"g d 1 * o o % w X.q .                                                                     * : d g g ",
"f f d : o X j o.o.q .                                                                     * : d g g ",
": : 1 * < x | X.X.q .                                                                     * * : : : ",
"d d 8 = e M X.X.M 0 .                                                                     * : 8 d d ",
"~ ~ ! 8 , k ....k @ .                                                                     * 2 E ~ ~ ",
"G J F 1 , p M ..k @ .                                                                     * : V G G ",
"h d 8 = > i m ..k @ .                                                                     * - d h h ",
"h 8 * * * * c ..k @ .                                                                     * : d h d ",
"4 - = ` Z $ , y k @ .                                                                     * * 1 1 1 ",
"1 : ; 7.8.D 4 > p @ .                                                                     * = : 1 1 ",
"U h 4 7.k.z.' > p @ .                                                                     * 1 J U T ",
"I d ; 7.0.q.D > p @ .                                                                     * 1 G I J ",
"h 8 ; 6.5.* = , p @ .                                                                     * = d g h ",
"h 1 * 6 6 * s c k @ .                                                                     * - f h h ",
"h 8 : = > r b X.z # .                                                                     * = 2 8 2 ",
"h g g - r o.o.X.X.q .                                                                     * * * * * ",
": : : = r o.M m X.q .                                                                     * : G J J ",
"8 8 3 - < c a a v & o                                                                     * 1 J T T ",
"! ! T 8 = = $ * = * $ $ * * * * * * * $ $ * * $ * * * o * * * * * * * * * * * * * * * * * * - g h h ",
"J J J V 8 $ V Q Q Q Q Q Q Y - 2 Q Q Q Q / H $ g Q Q / Q Q H ; H Q Q Q Q Q A 4 K Q Q Q Q Q f - d f h ",
"h h h U H 3 E #.%.=.=.=.=._ 1 d %.%.=.=.%.~ $ V =.=.%.=.%.Q 4 E %.%.%.%.#.R C ( %.%.%.%.#.G 1 d h h ",
"h h h h H T g 8 V G H H V B = 2 G G V H V g * 3 F G V G F f * d G F G B 8 8 f A F G F h 7 8 f g h h ",
"1 1 1 3 8 h 1 = 1 1 1 2 1 1 * - 2 1 1 2 1 1 * - 4 1 1 1 8 : * : 1 1 1 1 * - 1 2 1 1 2 : * : 1 2 4 1 ",
"* * * * * * * * * * * * * * * * * * * * * * * * * * * * * * * * * * * * * * * * * * * * * * * * * * "
};
