/* XPM */
static char *c649f3370679418eb91da5afba222f2eVhDptOyF8AIM8Dot[] = {
/* columns rows colors chars-per-pixel */
"50 50 179 2 ",
"   c None",
".  c #141414",
"X  c #1B1414",
"o  c #1D1D1D",
"O  c #211615",
"+  c #251814",
"@  c #281915",
"#  c #251518",
"$  c #2D171B",
"%  c #231D1C",
"&  c #2C1A1B",
"*  c #301C17",
"=  c #341A1B",
"-  c #381F18",
";  c #23211F",
":  c #2A211E",
">  c #35221D",
",  c #3D211A",
"<  c #2A1E20",
"1  c #3A1A20",
"2  c #361D22",
"3  c #222222",
"4  c #2A2625",
"5  c #2B2827",
"6  c #262B2B",
"7  c #2D2929",
"8  c #352424",
"9  c #3D2326",
"0  c #3F2A23",
"q  c #332D2D",
"w  c #37302E",
"e  c #39312F",
"r  c #2A3434",
"t  c #2E3D3C",
"y  c #3B3332",
"u  c #383734",
"i  c #41221B",
"p  c #48251B",
"a  c #51281D",
"s  c #5B2D1F",
"d  c #431C23",
"f  c #4A1D26",
"g  c #4F1F28",
"h  c #521F29",
"j  c #432627",
"k  c #4E2222",
"l  c #462A24",
"z  c #4C2C25",
"x  c #542424",
"c  c #522E24",
"v  c #5F2E20",
"b  c #52222B",
"n  c #5C222D",
"m  c #582826",
"M  c #423736",
"N  c #433936",
"B  c #463B38",
"V  c #493C3A",
"C  c #632E22",
"Z  c #64242E",
"A  c #652A2A",
"S  c #6C292D",
"D  c #692E26",
"F  c #732E2C",
"G  c #673121",
"H  c #6E3423",
"J  c #763724",
"K  c #74322A",
"L  c #7C342B",
"P  c #793927",
"I  c #2F403F",
"U  c #4D423E",
"Y  c #51423F",
"T  c #324443",
"R  c #3B4644",
"E  c #334947",
"W  c #3E514E",
"Q  c #3B5A57",
"!  c #3E615E",
"~  c #4C4944",
"^  c #484643",
"/  c #554542",
"(  c #594743",
")  c #544A43",
"_  c #5C4A45",
"`  c #5B4E49",
"'  c #43524F",
"]  c #5B534B",
"[  c #53524F",
"{  c #4A5856",
"}  c #575754",
"|  c #604C47",
" . c #644E49",
".. c #65524B",
"X. c #6A534D",
"o. c #6E5E53",
"O. c #665B55",
"+. c #715751",
"@. c #755A54",
"#. c #6E655C",
"$. c #78675C",
"%. c #406764",
"&. c #426B67",
"*. c #4A7C78",
"=. c #497A76",
"-. c #566A67",
";. c #7A6F64",
":. c #756B61",
">. c #7A726A",
",. c #6F6D69",
"<. c #863D27",
"1. c #80362A",
"2. c #84392A",
"3. c #8B3D29",
"4. c #883D27",
"5. c #8F4029",
"6. c #816C5F",
"7. c #826D60",
"8. c #897264",
"9. c #8F7768",
"0. c #857A6D",
"q. c #84766A",
"w. c #91786A",
"e. c #997F6F",
"r. c #8B7F72",
"t. c #5B807B",
"y. c #68837E",
"u. c #64827D",
"i. c #8D8174",
"p. c #978778",
"a. c #AA8D7A",
"s. c #A48D7B",
"d. c #AD917E",
"f. c #4E8681",
"g. c #528E89",
"h. c #54928D",
"j. c #599D98",
"k. c #569893",
"l. c #718F8A",
"z. c #5BA29D",
"x. c #63A19B",
"c. c #5FABA5",
"v. c #68BFB8",
"b. c #65BAB3",
"n. c #7EBAB3",
"m. c #68A6A0",
"M. c #69C3BC",
"N. c #6CC9C2",
"B. c #71D4CC",
"V. c #8D8C87",
"C. c #908C87",
"Z. c #9A9186",
"A. c #999691",
"S. c #AE9886",
"D. c #AB9684",
"F. c #B49986",
"G. c #B69C88",
"H. c #B1A18F",
"J. c #BBA28E",
"K. c #BFA995",
"L. c #BCAA96",
"P. c #A9A59F",
"I. c #8DBEB7",
"U. c #94BFB8",
"Y. c #AAA7A0",
"T. c #B8B4AD",
"R. c #C6AF9A",
"E. c #C7B5A0",
"W. c #D3BFA9",
"Q. c #D0BBA6",
"!. c #86C6BF",
"~. c #CBC6BF",
"^. c #99CBC3",
"/. c #99D6CE",
"(. c #AEE4DB",
"). c #D3CFC6",
"_. c #D3D4CB",
"`. c #E1DCD3",
"'. c #EFE9E0",
/* pixels */
"      3 ) a.a.8.4 0.W.W.W.L.) 3 3 3 3 3 ; 3 3 3 3 3 3 3 3 3 3 3 < 3 3 B H.~.L.) ) a.a.a.a.] 3       ",
"      Y $.a.F.D.:.>.0.0.0.>.) B B 5 7 N V B B q 4 y B V B e 3 e B B B / :.8.;.u ] J.J.G.d.$.) q     ",
"    q 6.a.a.R.R.E.#.4 3 4 7 | @.@.y y X.@.@.@.V 7 X.@.@.@.Y 3 Y @.@.@...q ; 3 5 O.E.E.K.d.a.8.w 3   ",
"3 ) 6.p.F.R.q.] ] _ _ _ _ _ ( / / q q / / ( ( y 3 V / / ( M 3 N / / ( V 5 e ` _ ` ] ] ;.L.F.8.w 3 3 ",
") ..$.s.D.i.] N M V _  . ._ N y e 4 5 e y y u 7 3 q u u y q < 5 y w y u y Y  . .Y N N ` r.8.o.) ) ) ",
"a.#.7 p.i.3 ( @.@.B 4 M V N 5 3 3 3 3 3 3 3 3 3 3 3 3 3 3 3 3 3 3 3 3 7 X. .V B Y $.@.| 3 3 B p.a.a.",
"a.s.i.$.) y U ( ( y 3 7 q 5 o X . . o . . X . . X . X . o . . . . o X o y e q 8 M _ ( V y 7 U S.G.a.",
"F.D.Z.~ 7 V V B M 7 o o o o @ + . + & * & @ . X @ & * @ X X & > * * X X > 4 o o 4 e M y M 7 B p.S.F.",
"Q.9.5 ; 7 V V M 3 o . . . X G s . v 4.4.2.C O 1 Z P 4.P , , <.<.3.2.i @ J a . . . 3 3 3 3 < 3 7 >.Q.",
"~.8.; U N q q 4 X . X p s s 2.s . G 5.5.5.J O 1 Z 3.5.4.- , 5.5.3.F i @ J J s s l X 3 7 ^ / M 4 U #.",
"H.$.5 Y ( q 4 ; @ X @ J 3.3.4.v . C 5.5.5.J O = S 2.3.2.* i 5.5.1.Z = @ J 3.3.5.v . o y _ X._ q 3 3 ",
"I U u U ( ..e 8 J , @ J L F 3.v . C 5.5.4.H + = Z 2.1.Z & i 5.5.1.Z = @ J 3.5.5.s . o 3 q M U M w 3 ",
": q V V V V 4 > <.p @ J L A 1.C . G 5.5.5.J O i 1.3.2.F * i 3.5.1.Z 1 @ J 1.L 4.s . . o 3 q V V w 3 ",
"3 w V B y 3 o , <.p @ J L S 1.v . v 4.4.4.H O a 3.3.4.1.- i 5.3.1.Z $ $ J L S 2.s . X O < q u B 7 3 ",
"M N B B e < z J 4.p @ J L Z 1.s . G 4.S 1.H + a 5.5.1.A & i 5.L Z Z = @ J L Z 1.s . a c 3 5 7 7 3 3 ",
"e y y y 7 o G 5.5.p @ J L Z L x . G 4.F 1.H O a 5.5.L n $ i 3.F Z Z = + D F S 1.s . G J j < 4 y N N ",
"3 3 3 3 o . c 5.3.p @ J L n Z d . G 4.5.5.H O a 3.5.F n # i 5.F n Z 1 # h n Z 2.C . C 1.Z 9 e X.@.@.",
"_ ( ( w , G P 5.5.p @ J L Z Z d . v 4.F 1.H O a 5.5.1.n # i 3.F Z Z 2 . h S 1.F f . h F L z 7 Y ( / ",
"X.| ) q 0 H 5.5.5.p @ J 1.S Z d . G 1.Z 1.G O a 5.5.1.n $ i 5.1.S Z 2 X h F 3.S d . f F 3.c 7 N V V ",
"V y 5 3 3 3 G 5.5.p @ P 5.2.S d . G 1.Z 1.G O a 5.5.1.n # i 5.3.1.Z = # h F 3.S d . f S 3.c 5 N V V ",
"V e 6 %.! 3 l c c 8 % l A K Z d . v 1.Z 1.G O d 1.4.1.n $ i 3.1.K L , X 8 l z j $ . m L K j 5 N V V ",
"y q 6 j.m.} ' W } ' T 6 j S Z d . C 1.Z F G O 1 Z 1.1.S $ i 3.1.S K 0 . o r E 6 X . a K S j 4 y y y ",
"4 3 6 j./.`.^.!.`.^.z.I z 2.S d . C 1.Z Z k X 1 Z 2.3.1.= i 5.3.H 8 3 < 3 %.c.E ; o 4 z 2.z 3 3 6 < ",
"V u 6 j.n.C.y.*.V.y.&.r c 3.S d . v 1.Z Z k X 1 Z 2.2.F * i 5.5.J 3 Q *.*.z.N.h.=.=.I 0 K l 7 V V Y ",
"@.U 6 h.f.3 < o X # o % k 3.S d X D 1.Z Z f X 1 Z 4.1.Z # i 5.3.H 4 f.B.M.v.v.v.N.B.Q 2 n 9 q X.+.+.",
"Y e 3 r r 3 o . X X . . p 3.S d . D 1.Z Z f X 1 Z 4.3.1.- i 4.1.n 3 f.b.Q T T T *.B.Q 9 n d 7 V Y Y ",
"V M q 3 o o > i = O X - G 3.S d . C 1.Z Z f X 1 S 2.5.4.- = 1.Z b 4 l.I.R 3 3 3 -.(.{ 9 n d 6 M V V ",
"B N M 7 o . C 1.Z = @ J 3.3.S d . C 1.Z Z f X 1 S 2.5.4.- $ Z Z b 3 C.).[ q r q >.'.-.9 n 9 6 M M V ",
"7 7 q 3 0 C 2.2.Z = @ J 3.4.S d . C 4.1.F h X p 3.3.3.4.- $ Z Z g X ^ ,.P.T.T.T.A.-.q 2 n d 6 7 7 7 ",
"M M y 5 l L 2.2.Z $ @ 1.4.1.F k . v 5.5.F f X p 3.3.3.4.- $ Z Z n i & u C.P.P.P.,.3 $ 1 n 9 4 y M y ",
"@.@.+.y 2 Z L 2.Z = + J 1.Z 1.s X G 5.5.F h O a 3.5.3.3.= $ Z Z S 3.d . 3 3 3 3 o . f n Z 9 w X.@.@.",
"( _ / q 9 A L 2.Z = + 1.4.1.4.s . G 5.5.1.C O x 3.1.1.4.- $ n Z F 2.d . . o . . . . f Z Z 9 7 Y _ _ ",
"V M y 4 8 b K 2.Z 2 + J 3.1.3.C . C 3.5.5.J O a 4.S F 4.- $ Z n S 3.k X @ * * * + . f n Z 9 4 M B V ",
"V y 3 3 3 3 D 2.Z = + J L S 2.v . G 3.3.5.H X a 4.D F 4.- = Z Z S 3.p + J 3.4.4.a . f Z Z d 4 N B B ",
"q 5 6 %.! 3 0 z 9 < < l m Z 2.v . C 5.5.5.H O a 4.S F 4.- $ Z S 1.3.p @ J 5.5.5.v . d Z Z 9 3 q q q ",
"q 5 6 j.x.~ R R ^ R t 6 9 Z 2.v . H 5.3.5.J O a 4.S F 4.= $ Z 1.3.3.p @ J 5.5.5.v . d Z S j 3 q q q ",
" .V 6 j./.).U.n.).U.k.t j Z 2.C . C 3.3.5.H X a 4.S F 4.- = n 1.3.5.p @ J 3.5.5.v . f S 1.z q _ X. .",
"_ B 6 j.n.C.y.*.V.y.&.r 9 Z 2.v . x 1.3.5.J O a 4.S F 4.- $ Z 1.5.5.p @ J 5.5.5.v . f S 3.c q ( | | ",
"V y 6 g.f.3 o 3 o o 3 % 9 Z 2.v . d F 3.3.G X a 2.Z F 4.- = Z L 5.5.a @ J 5.5.5.v . f F 3.c 4 M B B ",
"V q 3 I t 3 o . . . . . 2 Z 2.v . f F 3.L x X a 3.S F 3.- $ Z L 5.5.p @ J 5.5.5.s . d F 3.c 7 M B B ",
"V u w 3 8 l p i , + X > k S 1.v . d F 3.L g X a 3.L L <.- = F 3.5.5.p + D 2.5.2.a . d Z 1.j 5 q u w ",
"V V N 7 z 5.5.5.5.p + J L Z 1.v . d S 4.F g X a 5.5.5.<.- i 3.4.5.3.p O b F 4.S = . f Z Z d 3 3 3 < ",
"5 5 7 3 ; , , > > + X > - & * & . O & , $ # . + , * , > X O > > - - % . # & , & # . # $ $ < q / _ _ ",
"y y w 5 o . . . . . . . . . . X X . . . . X . . X . . . . X . . . X . . X . . . . . . . . o q _ ..X.",
"@.+.X.e ; o ; o ; o ; % 3 3 3 o % o ; o 3 ; ; ; 3 o ; o < o 3 < 3 3 3 o o o 3 3 3 3 o < o 3 5 B V V ",
"_ _ | Y M ; ) o.o.o.o.#.o...5 w o.#.o.#.#.) ; N #.o.o.#.o.^ . ~ o.o.o.o.o.U ; ) O.o.o.o.o.B 7 M V V ",
"V V V | _ e O.8.9.w.w.w.w.$.w N w.w.w.w.9.o.; Y w.w.9.9.w.... ..w.w.w.9.8.( 4 @.w.w.w.9.8.) q M V V ",
"V V V U Y X.V u / / / Y ) U 5 w / / / / Y B 4 e ( Y ( Y / u 3 M / / / U y y B ^ / / ) V q y M B V V ",
"q q q e y V q 4 q q q q q q 4 5 q q q q q q 3 7 q q w q w 7 3 7 q w q q 3 5 q q w q q q 3 7 q q w q ",
"3 3 3 3 3 3 3 3 3 3 3 3 3 3 3 3 3 3 3 3 3 3 3 3 3 3 3 3 3 3 3 3 3 3 3 3 3 3 3 3 3 3 3 3 3 3 3 3 3 3 "
};
