/* XPM */
static char *_86a1efa989149d9cc7a34387a601052cMMUa6CKNHKU36is[] = {
/* columns rows colors chars-per-pixel */
"50 50 49 1 ",
"  c #222222",
". c #242323",
"X c #272525",
"o c #292626",
"O c #2A2727",
"+ c #2B2828",
"@ c #2D2929",
"# c #2E2929",
"$ c #2F2B2A",
"% c #302B2B",
"& c #322C2C",
"* c #352E2E",
"= c #362F2E",
"- c #37302F",
"; c #393131",
": c #3B3232",
"> c #3C3332",
", c #3F3534",
"< c #433737",
"1 c #433837",
"2 c #463938",
"3 c #463A39",
"4 c #483B3A",
"5 c #4A3C3B",
"6 c #4D3E3D",
"7 c #4F403D",
"8 c #4F403E",
"9 c #50403E",
"0 c #52423F",
"q c #534240",
"w c #554441",
"e c #564442",
"r c #564542",
"t c #584643",
"y c #594744",
"u c #5C4945",
"i c #5E4A46",
"p c #5F4B47",
"a c #624D49",
"s c #634E49",
"d c #644F4A",
"f c #66504B",
"g c #67514C",
"h c #68514C",
"j c #6B534E",
"k c #6D554F",
"l c #725852",
"z c #745953",
"x c #775C55",
/* pixels */
"        O*,1-X          +:1444444,=XX*,1-#        ",
"        X=,1-O          #-1444444,=OX#,1-+  ..    ",
"  .XO+++#:11:#O#++++++++*,24444441:#$-,1:*X#++$$-*",
"  X#=---:,11<:----------:,44444441,>:,22,:----15qq",
"  +-<22224244212141214122444444444222222124121tpll",
"++%>244244444444444444444444444444444454444444ygxx",
"--:,244444444444444444444444444444444444444444ygxx",
"<112444444444444444444444444444444444444444444ygxx",
"2444444444444444444444444444444444444444444452ihxx",
"5444444444444444444444444444444444444444444445rhxx",
"4444444444444444444444444444444444444444444444rhxx",
"<112244444444444444444444444444444444444444444ygxx",
"==-,544444444444444444444444444444444444444444igxx",
"XO#:244444444444444444444444444444444444444444rgxx",
"XO#:144444444444444444444444444444444444444444ihxx",
"#%-,444444444444444444444444444444444444444444rgxx",
",,,1444444444444444444444444444444444444444444ygxx",
"1222444444444444444444444444444444444444444452rgzz",
":-,1444444444444444444444444444444444444444455rydg",
"@@$:24444444444444444444444444444444444444442560rr",
"  @*1444444444444444444444444444444444444444445222",
"  @-2444444444444444444444444444444444444444448rir",
"  +-244444444444444444444444444444444444444444ryhg",
"  +-144444444444444444444444444444444444444444rgxx",
"  @*344444444444444444444444444444444444444455ryhh",
"  @-1444444444444444444444444444444444444444426rri",
"  +-3444444444444444444444444444444444444444445555",
"++$:24444444444444444444444444444444444444444458ww",
"--:,444444444444444444444444444444444444444444qypa",
"1141444444444444444444444444444444444444444444rgzz",
"4444444444444444444444444444444444444444444425ygxx",
"4444444444444444444444444444444444444444444455ygxx",
"4353444444444444444444444444444444444444444444yhxx",
",112444444444444444444444444444444444444444444rfkk",
"**:,4444444444444444444444444444444444444444458rii",
"OX@:24444444444444444444444444444444444444444555q0",
"  +-1444444444444444444444444444444444444444444444",
"  +-4444444444444444444444444444444444444444444444",
"  +-1444444444444444444444444444444444444444444424",
"  +-2444444444444444444444444444444444444444455560",
"  +-1444444444444444444444444444444444444444448riy",
"  +-244444444444444444444444444444444444444444rpkh",
"  +-244444444444444444444444444444444444444444ygxx",
"  +-144444444444444444444444444444444444444444ygxx",
"  +-244453534444444444444444544444444444445244ygxx",
"  +-244435354444444444444444254444444244444544yhxx",
",14qyytttq33534qrrq646qiriytirryir0550ryyyyyyygkxx",
"uypaggggatq5335wahyq40pggggghhgggsr65rshgghgggklxx",
"xxxxxxxxkpq4448ygzgq4ygxxxxxxxxxxki04ikxxxxxxxxxxx",
"xxxxxxxxkpq344qyjzgt4ygxxxxxxxxxxks60ykxxxxxxxxxxx"
};
