/* XPM */
static char *d6d7bcbd33c24892a5da9dec4efc1d00ow2BnQ4VSgEwNYBY[] = {
/* columns rows colors chars-per-pixel */
"50 50 185 2 ",
"   c #483b3a",
".  c #222222",
"X  c #2C2225",
"o  c #2C2B2B",
"O  c #2D242B",
"+  c #332426",
"@  c #332429",
"#  c #3C232B",
"$  c #39312F",
"%  c #333232",
"&  c #383535",
"*  c #393837",
"=  c #3C3739",
"-  c #3C3B3A",
";  c #442A26",
":  c #42232D",
">  c #452E2A",
",  c #502D27",
"<  c #572E28",
"1  c #5B2D2C",
"2  c #452639",
"3  c #592535",
"4  c #552434",
"5  c #433E3D",
"6  c #483C39",
"7  c #65322A",
"8  c #78362C",
"9  c #622638",
"0  c #6B2937",
"q  c #77293D",
"w  c #6F3A32",
"e  c #7F3432",
"r  c #6F4139",
"t  c #5F2D56",
"y  c #572B4F",
"u  c #7E2743",
"i  c #603542",
"p  c #713543",
"a  c #763350",
"s  c #454443",
"d  c #494746",
"f  c #4A4946",
"g  c #4B4948",
"h  c #5F4944",
"j  c #504E4C",
"k  c #524947",
"l  c #52504E",
"z  c #565452",
"x  c #585754",
"c  c #5A5856",
"v  c #5E5D5A",
"b  c #7C564F",
"n  c #615C59",
"m  c #715D58",
"M  c #754D57",
"N  c #63625F",
"B  c #6A625E",
"V  c #694F62",
"C  c #725D60",
"Z  c #666461",
"A  c #696663",
"S  c #6E6C69",
"D  c #6D6B67",
"F  c #706169",
"G  c #756E6C",
"H  c #74726E",
"J  c #767470",
"K  c #797772",
"L  c #7E7B77",
"P  c #7F7D78",
"I  c #84392D",
"U  c #893A2E",
"Y  c #843735",
"T  c #993E30",
"R  c #832D3C",
"E  c #B23E3B",
"W  c #8A463B",
"Q  c #95473A",
"!  c #A14031",
"~  c #AB4234",
"^  c #B64533",
"/  c #BA4836",
"(  c #BA4537",
")  c #CB4A36",
"_  c #C5433E",
"`  c #CB443D",
"'  c #C34C39",
"]  c #DA4E38",
"[  c #D24B39",
"{  c #C4523F",
"}  c #D7523E",
"|  c #DB523D",
" . c #872745",
".. c #9B2F45",
"X. c #85374C",
"o. c #9C3D47",
"O. c #A52D4B",
"+. c #AA2F49",
"@. c #A32F47",
"#. c #B93944",
"$. c #B03447",
"%. c #844A42",
"&. c #8E4B40",
"*. c #85524A",
"=. c #945B56",
"-. c #974D52",
";. c #AB4143",
":. c #B44A4A",
">. c #8F655C",
",. c #AD6659",
"<. c #B14E64",
"1. c #947067",
"2. c #867B77",
"3. c #817F7A",
"4. c #8C7C76",
"5. c #9F757D",
"6. c #966567",
"7. c #A26C61",
"8. c #A97574",
"9. c #B37D71",
"0. c #B37468",
"q. c #C95846",
"w. c #DC5944",
"e. c #D15D4B",
"r. c #DD5F4B",
"t. c #DB5540",
"y. c #DE634E",
"u. c #D3614E",
"i. c #C9675F",
"p. c #DA6754",
"a. c #E06D59",
"s. c #E1715E",
"d. c #C4706C",
"f. c #E37D6A",
"g. c #86837E",
"h. c #BC8579",
"j. c #CC857A",
"k. c #E78E7C",
"l. c #8B7081",
"z. c #BB7C80",
"x. c #8E8B86",
"c. c #908783",
"v. c #95928D",
"b. c #9E918A",
"n. c #9C8491",
"m. c #999691",
"M. c #9D9994",
"N. c #A0958E",
"B. c #A09D97",
"V. c #B1878F",
"C. c #A8A19C",
"Z. c #AE92A1",
"A. c #AAA7A0",
"S. c #ACA9A2",
"D. c #B3ADA7",
"F. c #B2ADA8",
"G. c #B6B2AB",
"H. c #B9B0A8",
"J. c #BDB9B2",
"K. c #C58E81",
"L. c #D49B8E",
"P. c #D69E91",
"I. c #CD9689",
"U. c #E49B8C",
"Y. c #DEA699",
"T. c #EBA292",
"R. c #EDAD9D",
"E. c #CB9AA0",
"W. c #C3BBB4",
"Q. c #E7AFA1",
"!. c #EFB7A9",
"~. c #CBC5BD",
"^. c #F2C2B4",
"/. c #CDC8C0",
"(. c #D3CFC6",
"). c #D7D1CA",
"_. c #DED9D0",
"`. c #F6D7CB",
"'. c #E1DCD3",
"]. c #EDDFD5",
"[. c #E8E3D9",
"{. c #EFE9E0",
"}. c #F3ECE3",
"|. c #FDF7ED",
" X c #F6F0E6",
/* pixels */
"                                                                                                    ",
"                                                                                                    ",
"                                                                                                    ",
"                                                                                                    ",
"                                                                                                    ",
"                                                                                                    ",
"                                                                                                    ",
"                                                                                                    ",
"                                                                                                    ",
"                                                                                                    ",
"                                                                                                    ",
"                                                                                                    ",
"                                                                                                    ",
"                                                                                                    ",
"                                                                                                    ",
"                                                                                                    ",
"                                                                                                    ",
"                                                                                                    ",
"                                                                                                    ",
"                          . .                                               . .                     ",
"                        l N N c                                           l N N c                   ",
"                    . - K G.J.x.z . .                                 . - K G.W.x.z . .             ",
"                    . - P (.[.G.3.z l                               g z S B._._.M.z . .             ",
"                    . - g.(. X'.(.J.v.v . . . . . . . . . . . . . f 3.F.~._.}.'.M.c . .             ",
"                    . - 3.(.|.|.|.{.C.N . + ; , , , , , , , ; + . f x.(.|.|.|._.M.x . .             ",
"                    . - 3.(.|.|.|.}.S.B . , 8 ! ! T ! ! ! ! I < + f x.(.|.|.|._.M.x . .             ",
"                    . & S F.(.(.(.~.N.m ; 8 ~ ] ] ] ] ] ] ] ^ I < h 4.H.(.(.(.~.x.z . .             ",
"                    . o 5 c Z Z N B b W ! ^ ) ] ] ] ] ] ] ] ) / ~ Q *.m B N B N x                   ",
"                    . . X X + + + > 8 ! ] ] ] ] ] ] ] ] ] ] ] ] ] / U < + X . . .                   ",
"                    . X : 3 q R U ! ~ ' ] | ] ] ] ] ] ] ] ] ] ] ] ) / ! U 7 + . .                   ",
"                    . + 3  .O.#.[ | | w.y.y.y.y.w.t.] ] ] ] ] ] ] ] w.r.q.W > . .                   ",
"                    . + 3  .O.#.` | s.k.R.R.R.R.k.s.| ] ] ] ] ] ] | k.U.L.1.6 . .                   ",
"                    . + 4  .O.#.` w.k.^.|.|.|.|.^.k.t.] ] ] ] ] ] a.T.`.'.M.d . .                   ",
"                    . @ 3  .O.#.` w.k.!.|.|.|.|.^.U.t.] ] ] ] ] ] y.T.`.'.M.g . .                   ",
"                    . X 3  .O.#.` w.U.!.|.|.|.|.!.k.t.] ] ] ] ] ] a.T.`._.M.d . .                   ",
"                    . + 3  .O.#.` ] i.9.Z.Z.Z.Z.z.i.t.] ] ] ] ] ] y.d.V.n.F = . .                   ",
"                    . @ 3  .O.#.q.` $.X.t t t t X.;.} ] ] ] ] ] ] ' o.p t 2 O . .                   ",
"                    . . # 4 p =.j.U.8.M & V l.Z.l.=.r Q 0.U.j.,.W W 6.V.n.F = . .                   ",
"                    . . . . i L W.].B.Z X F F.}.W.G > z N.].~.g.6 k g.~.).v.d . .                   ",
"                    . . . . % z L v.G d . l K M.G j o y B m.K z % & N g.x.Z * . .                   ",
"                    . . . . . X o o o X . o o o o . . . o o o X . . o o o o . . .                   ",
"                    . o s N D g & X - c H z * . - z H v s o & j A N d % o s Z J J                   ",
"                    . * H J./.x.j o A C._.m.v . v m.(.F.H o l x.~.J.3.s * J J._.'.                  ",
"                    . & m Z.E.8.b w 7.K.!.h.=.7 =.h.Q.I.7.w *.9.Y.P.7.b r >.b.A.A.                  ",
"                    . O i -.<.<.( / q.e.a.e.{ ^ / u.a.u.q.' ' q.p.u.q.( ~ W h g g                   ",
"                    . @ 3  .O.$.#._ E ~ ! ! ! ! ! ! ! ! T T E ^ _ q._ _ E e # . .                   ",
"                    . @ 4  ...O.+.@.R 1 ; ; ; ; ; # > > ; ; 1 R ..+.+.+...0 # . .                   ",
"                    . O : q u u u u 9 ; . . . . . . . . . . : 3 u u u  .q 4 @ . .                   ",
"                    . . + # : : : # #                         # # : # : # @ X . .                   ",
"                    . . . . . . . . .                         . . . . . . . . . .                   "
};
