/* XPM */
static char *_64d040ddc60479ad268ae9324943418bchGfDogczHxNpxw[] = {
/* columns rows colors chars-per-pixel */
"50 50 192 2 ",
"   c #483b3a",
".  c #212222",
"X  c #2B2622",
"o  c #252B25",
"O  c #2E2923",
"+  c #272B2A",
"@  c #362E25",
"#  c #273226",
"$  c #293A2C",
"%  c #28342A",
"&  c #3C3525",
"*  c #3A332E",
"=  c #2B393A",
"-  c #393939",
";  c #272C32",
":  c #413223",
">  c #493624",
",  c #4B3A25",
"<  c #49392B",
"1  c #533C24",
"2  c #453D37",
"3  c #2D4434",
"4  c #2F4A38",
"5  c #2F463A",
"6  c #335C32",
"7  c #33543C",
"8  c #355E38",
"9  c #2D462C",
"0  c #386A37",
"q  c #3B7639",
"w  c #584C28",
"e  c #4B423A",
"r  c #4A4037",
"t  c #594C32",
"y  c #694726",
"u  c #6E4A26",
"i  c #654525",
"p  c #734D26",
"a  c #63552A",
"s  c #6D582A",
"d  c #765629",
"f  c #735537",
"g  c #73612C",
"h  c #7E692D",
"j  c #2C3841",
"k  c #2F3D4C",
"l  c #36484B",
"z  c #355D42",
"x  c #314352",
"c  c #3D4957",
"v  c #355350",
"b  c #39634E",
"n  c #396847",
"m  c #3E744D",
"M  c #3F7A4B",
"N  c #584B42",
"B  c #4A525C",
"V  c #63574E",
"C  c #407C4B",
"Z  c #567A58",
"A  c #487A51",
"S  c #607B5E",
"D  c #776251",
"F  c #49667D",
"G  c #777A6B",
"H  c #6D716A",
"J  c #875727",
"K  c #885828",
"L  c #925D28",
"P  c #846F2F",
"I  c #89732F",
"U  c #977E31",
"Y  c #8F6A30",
"T  c #A16529",
"R  c #A86929",
"E  c #B6702A",
"W  c #BE742B",
"Q  c #AB6D2F",
"!  c #CA7B2C",
"~  c #D17E2C",
"^  c #846D5C",
"/  c #8E725B",
"(  c #A97747",
")  c #8F7662",
"_  c #87796F",
"`  c #947A65",
"'  c #9A7F69",
"]  c #877D74",
"[  c #3F803F",
"{  c #408142",
"}  c #438D41",
"|  c #42854A",
" . c #438A4A",
".. c #459349",
"X. c #479948",
"o. c #489C48",
"O. c #469944",
"+. c #4BA747",
"@. c #A98B33",
"#. c #A58833",
"$. c #BA9935",
"%. c #BA8730",
"&. c #D9832C",
"*. c #D08832",
"=. c #E1872D",
"-. c #EE8E2E",
";. c #E68A2D",
":. c #EE922F",
">. c #ED8E30",
",. c #ED933C",
"<. c #E99633",
"1. c #F19D32",
"2. c #CFAA38",
"3. c #E5A83B",
"4. c #F2A534",
"5. c #F4AC36",
"6. c #E5BA3B",
"7. c #F6BB3A",
"8. c #F5B638",
"9. c #ECC03C",
"0. c #F9C73D",
"q. c #FACB3E",
"w. c #F5C53C",
"e. c #A78457",
"r. c #96867A",
"t. c #908477",
"y. c #9F836B",
"u. c #A58468",
"i. c #A38E7E",
"p. c #AB8C73",
"a. c #BE9879",
"s. c #C88647",
"d. c #D08841",
"f. c #EB9541",
"g. c #EA9B4F",
"h. c #EA9E57",
"j. c #EFAE4B",
"k. c #F2A65E",
"l. c #EDB156",
"z. c #D49E6D",
"x. c #D3A879",
"c. c #E7A569",
"v. c #E5AC7A",
"b. c #E8AE7C",
"n. c #EBBD73",
"m. c #E8BB7E",
"M. c #F6B375",
"N. c #F8C943",
"B. c #F5C74E",
"V. c #F3C556",
"C. c #EFC16A",
"Z. c #3F6481",
"A. c #4F89B6",
"S. c #5E8CB0",
"D. c #5698CC",
"F. c #679BC5",
"G. c #75A1C4",
"H. c #AF9784",
"J. c #AC9B8E",
"K. c #89A7BF",
"L. c #83A4BE",
"P. c #95AABA",
"I. c #B6ACA5",
"U. c #A9B1B7",
"Y. c #B3B4B4",
"T. c #BDB7B2",
"R. c #A1A2A2",
"E. c #C9A68B",
"W. c #D3AB8A",
"Q. c #CFAC91",
"!. c #DEB594",
"~. c #EAB886",
"^. c #E6B996",
"/. c #E9BB96",
"(. c #EBBD99",
"). c #E2B895",
"_. c #F0BD92",
"`. c #F4BB8A",
"'. c #C8B8AA",
"]. c #D8BDA8",
"[. c #C0B8B1",
"{. c #E1BFA3",
"}. c #EEC19C",
"|. c #F4C49E",
" X c #F8C497",
".X c #DCC1AA",
"XX c #E0C2A9",
"oX c #EEC6A5",
"OX c #F5C7A2",
"+X c #F5C9A4",
"@X c #FBCAA3",
"#X c #F8C7A0",
/* pixels */
"                                                                                                    ",
"                                                                                                    ",
"                                                                                                    ",
"                                                                                                    ",
"                                                                                                    ",
"                                                                                                    ",
"                                                                                                    ",
"                                                                                                    ",
"                                                                                                    ",
"                                                                                                    ",
"                                                                                                    ",
"                                                                                                    ",
"                                                                                                    ",
"                                                                                                    ",
"                                                                                                    ",
"                                                                                                    ",
"                                                                                                    ",
"                                                                                                    ",
"                          . . . . . . . . . . . . . . . . . . . . . . . . . . .                     ",
"                        1 y u y u u u u u u u u s s d g s g g g g g g g g g g s a r                 ",
"                    . @ p ! =.=.=.=.=.=.=.=.=.=.<.3.6.9.N.6.9.9.9.9.9.9.9.9.9.2.U w . .             ",
"                > i J L W ~ >.1.4.5.5.5.5.5.5.5.8.w.q.N.q.q.q.q.q.q.q.q.q.q.q.9.2.@.I g w           ",
"            . . > J ! ;.-.-.:.4.8.0.0.0.0.0.N.N.0.N.N.N.N.N.N.N.q.q.q.q.q.q.q.w.9.w.6.#.s O O       ",
"            . . > J ! -.-.:.:.1.1.4.4.4.4.j.l.n.n.C.n.n.n.C.C.V.N.q.q.q.w.7.5.<.%.I g P U @.P w . . ",
"            . . : p R ~ ~ ;.-.>.,.f.f.f.f.h.b./.^.^./.^.^.^.~.C.V.B.B.B.j.3.*.E J w @ h 2.N.@.a . . ",
"            . . O : > y T ~ ,.g.c.v.v.v.v.~.}.+XOXOXOXOXOX|.}. X~.m.m.m.x.e.s 1 >     $.6.N.@.a . . ",
"            N V N 2 O : f ( h.c.~./././.(.}.@X@X@X@X@X@X@X@X X}.(.(.(.{.W.) r . .       $.@.I a . . ",
"        . t ` E.H.^ 2 * D z.~./.|.#XOX@X+X@X@X@X@X@X@X@X@X@X@X@X@X@X@X+X!.y.r . .       & & &       ",
"        . e D ` ' ` ^ ) p.W.^.(.|.@X.X'.Y.Y.Y.Y..X.X@X@X@X@X@X@X@XoX].[.R.G - . .         .         ",
"            . . 2 ) W.|.(.^.^.(.|.OXT.K.D.D.D.D.G.T.+X@X@X@X@X@X@X.XU.G.A.Z.j . .                   ",
"            . . 2 ` W.@X#X|.OXOX@X+XT.K.D.D.D.D.K.T.+X@X@X@X@X@X@X.XU.G.A.Z.j . .                   ",
"            . . 2 / W. X X#X@X@X@X+X[.P.F.F.F.F.P.[.+X@X@X@X@X@X@X.XY.L.S.F j . .                   ",
"            . . < Y s.k.M._.@X@X@X+X{.'.I.I.I.I.'.{.OX@X@X@X@X@X@X+X].'.J.H - . .                   ",
"            , 1 u T ~ f.k.`.#X@X#X@X|.}././.(.(. X|.@X@X@X@X@X@X@X@X}.(.W.u.D 1 >                   ",
"        . 1 K E ! &.;.f.h.~.(.(.|.@X@X@X|.|.@X|.@X@X@X@X@X@X@X@X@X@X@XOX_.c.d.E J 1 . .             ",
"      . . : y L T T T Q ( ' i.H.H.H.H.H.H.H.H.H.E.).|.@X@X@X@X@X@X@X@X@X_.z.( L y > . .             ",
"      . . . O O O O O O j k B x c c c c c c c c G H.OX#X@X@X@X@X@X@X@X@X).u.e O X . . .             ",
"                . . . o = n C C m m m C m m m m Z G ] H.Q.OX^.E.H.r.r.r.] V * . . .                 ",
"                    . # 6 } o.+.+.+.+.+.+.+.+.+.| b x H H.{.E.] B x k x k = . . .                   ",
"                    . O 6 } +.+.+.+.+.+.+.+.+.+.o. .| Z S _ G S A m m M m 7 % . .                   ",
"                    . # 6 } +.+.+.+.+.+.+.+.+.+.+.+.+...m v b m  .X.o.+.O.0 # . .                   ",
"                    . # 6 } +.+.+.+.+.+.+.+.+.+.+.+.+.o... .C m b m | X.O.0 $ . .                   ",
"                    . # 6 } +.+.+.+.+.+.+.+.+.+.+.+.+.+.+.+...M b b m | q 0 % . .                   ",
"                    . # 6 } +.+.+.+.+.+.+.+.+.+.+.+.+.+.+.+.+.o.X. .m z v = + . .                   ",
"                    . o 9 0 q q q q [ } .............. .{ q q q q 0 z = j ; + . .                   ",
"                    . . . o o o o + 3 z m m m m m M m 0 4 o o o + . + . . . . . .                   ",
"                                  o % 3 4 4 4 4 7 b m z 3 o . . .                                   ",
"                                      . . . . . $ 7 b z 3 . .                                       ",
"                                                % $ = $ % . .                                       ",
"                                                  . . . . . .                                       "
};
