/* XPM */
static char *af8a70e68485431ec22ec168d87471e5gZiENUtIhLBWYMqf[] = {
/* columns rows colors chars-per-pixel */
"50 50 190 2 ",
"   c #483b3a",
".  c #222222",
"X  c #2A2723",
"o  c #2E2C23",
"O  c #262D2A",
"+  c #252A27",
"@  c #352C23",
"#  c #3A2E23",
"$  c #273226",
"%  c #27322A",
"&  c #28352D",
"*  c #29392A",
"=  c #39312B",
"-  c #2B3C34",
";  c #3C3632",
":  c #363A3D",
">  c #453423",
",  c #483624",
"<  c #493C2A",
"1  c #543C25",
"2  c #593F24",
"3  c #433C36",
"4  c #413E3C",
"5  c #2D4334",
"6  c #2F483A",
"7  c #314E3A",
"8  c #335C32",
"9  c #32543E",
"0  c #386837",
"q  c #544427",
"w  c #564A28",
"e  c #584C29",
"r  c #594326",
"t  c #4A413A",
"y  c #56493D",
"u  c #4F4527",
"i  c #664525",
"p  c #784F27",
"a  c #724C26",
"s  c #67582A",
"d  c #7E5227",
"f  c #7A542F",
"g  c #69523C",
"h  c #76642C",
"j  c #2C3841",
"k  c #355B43",
"l  c #375A4E",
"z  c #3D4B57",
"x  c #364651",
"c  c #31484B",
"v  c #376346",
"b  c #3A674D",
"n  c #3B6C4C",
"m  c #386548",
"M  c #3E744C",
"N  c #3F7B4D",
"B  c #52555B",
"V  c #5B4E44",
"C  c #775E48",
"Z  c #417E4B",
"A  c #5A775B",
"S  c #467052",
"D  c #746253",
"F  c #716359",
"G  c #575A61",
"H  c #4A677E",
"J  c #6C6B6D",
"K  c #6A7D63",
"L  c #7F7871",
"P  c #845627",
"I  c #925E28",
"U  c #846F2F",
"Y  c #89732F",
"T  c #987E31",
"R  c #947B30",
"E  c #896B32",
"W  c #A76829",
"Q  c #A56729",
"!  c #BC732B",
"~  c #BA7736",
"^  c #C7792B",
"/  c #CC7C2C",
"(  c #C57F3B",
")  c #886C54",
"_  c #BB7C40",
"`  c #8F7662",
"'  c #967B65",
"]  c #8A7D75",
"[  c #438D40",
"{  c #448C4A",
"}  c #438648",
"|  c #469448",
" . c #479A49",
".. c #479A45",
"X. c #4BA647",
"o. c #A68732",
"O. c #BE9D36",
"+. c #D6812C",
"@. c #CA9633",
"#. c #CA892F",
"$. c #E4892D",
"%. c #ED8D2E",
"&. c #E2872D",
"*. c #EE922F",
"=. c #ED8F31",
"-. c #ED9034",
";. c #EC9536",
":. c #F19D32",
">. c #D1AB38",
",. c #D0A837",
"<. c #EBA937",
"1. c #F2A434",
"2. c #F4AC36",
"3. c #E5BA3B",
"4. c #F7BB3A",
"5. c #F5B137",
"6. c #F9C73D",
"7. c #FACB3E",
"8. c #F4C63D",
"9. c #EFC33C",
"0. c #B68751",
"q. c #80816F",
"w. c #958578",
"e. c #90836D",
"r. c #A88A71",
"t. c #B69376",
"y. c #AD896B",
"u. c #CA894B",
"i. c #EB994A",
"p. c #E99F58",
"a. c #EAA15D",
"s. c #F0B751",
"d. c #CB986A",
"f. c #DDAA6C",
"g. c #E6A76D",
"h. c #E9A566",
"j. c #F4AA65",
"k. c #E7AD7B",
"l. c #EBBB76",
"z. c #F7B77D",
"x. c #F8C943",
"c. c #F5C447",
"v. c #F3C557",
"b. c #EEC069",
"n. c #EFC167",
"m. c #3F6481",
"M. c #4F89B6",
"N. c #618EB2",
"B. c #5698CC",
"V. c #6A9EC6",
"C. c #75A1C4",
"Z. c #94989B",
"A. c #AC9583",
"S. c #BA9D87",
"D. c #B9A494",
"F. c #89A7BF",
"G. c #98ACBB",
"H. c #A4A8AC",
"J. c #A9B1B7",
"K. c #BDB7B2",
"L. c #B3B4B4",
"P. c #B5AFAA",
"I. c #C29E80",
"U. c #C9A88E",
"Y. c #C8A589",
"T. c #D2AA89",
"R. c #DBB18F",
"E. c #D1AD91",
"W. c #DAB495",
"Q. c #CCAA90",
"!. c #EBB787",
"~. c #E2B694",
"^. c #E6B995",
"/. c #EBBE99",
"(. c #F4BE91",
"). c #C8BBAF",
"_. c #C0B3A9",
"`. c #D6BDA8",
"'. c #C5BAB0",
"]. c #EFC09B",
"[. c #F3C49E",
"{. c #F4C294",
"}. c #EEC085",
"|. c #DAC1AB",
" X c #E9C5A6",
".X c #E1C3A9",
"XX c #F4C7A2",
"oX c #F4C8A4",
"OX c #FCCBA3",
"+X c #85A6C0",
/* pixels */
"                                                                                                    ",
"                                                                                                    ",
"                                                                                                    ",
"                                                                                                    ",
"                                                                                                    ",
"                                                                                                    ",
"                                                                                                    ",
"                                                                                                    ",
"                                                                                                    ",
"                                                                                                    ",
"                                                                                                    ",
"                                                                                                    ",
"                                                                                                    ",
"                                                                                                    ",
"                                                                                                    ",
"                                                                                                    ",
"                          . . . . . . . . . . . . . . . . . . . + + . . . . . .           .         ",
"                        , 1 1 1 1 1 1 1 1 2 1 2 1 r e e e e e e e e e e e e e e u     u u w q       ",
"                    . # a W ^ ^ ^ ^ ^ ^ ^ ^ ^ ^ #.@.>.>.>.>.>.>.>.>.>.>.>.>.>.O.Y w o s o.,.R s . . ",
"                  2 i P W +.*.:.:.1.1.1.1.1.1.1.2.4.6.7.7.7.7.6.7.7.7.7.7.7.7.3.@.R h Y o.o.U e . . ",
"            . . , P ^ &.$.%.*.1.4.6.6.6.6.6.7.7.7.7.7.7.7.7.7.7.x.x.7.7.7.7.6.x.8.9.3.o.s o o       ",
"            . . , P ^ %.%.%.*.*.1.2.2.2.2.s.s.l.n.n.n.n.n.n.v.v.x.x.7.7.6.4.5.<.@.o.Y h w           ",
"            . . > P ! $.%.%.%.%.=.-.-.-.=.p.k.^.W.~.~.~.~.~.!.n.v.c.x.x.c.<.$.^ E 1 . .             ",
"            . . X > i d W / =.i.a.g.g.g.g.k.(./.[.[.[.].[.[.{.}.b.l.b.b.f.0.E a 2 >                 ",
"            3 t 3 = + = f ( i.h.!.^.^.^.^.[.[.OXOXOXOXOXOXOX[.[./.^.^./.Y.` 3 X .                   ",
"        . y ` t.r.F ; ; C d.!.(.{.[.XX[.[.[.OXOXOXOXOXOXOXOXOX[.XXXX[.[.~.' 3 . .                   ",
"        . y F t.r.` D D ' I.^./.[.OX X|.).).).).|. XOXOXOXOXOXOXOXoX.X`.D.L : . .                   ",
"            ; ; V ' d.^.W.~.^./.[.oX).G.V.V.V.V.G.'.oXOXOXOXOXOXOX.XL.F.N.H j . .                   ",
"            . . y ` T.[.[.[.[.[.[.oXK.+XB.B.B.B.+XK.oXOXOXOXOXOXOX|.J.C.M.m.j . .                   ",
"            . . 3 ` T.OXOXOXOXOXOXoX'.+XB.B.B.B.+XK.oXOXOXOXOXOXOX|.J.C.M.m.j . .                   ",
"            . . < ) u.j.z.{.OXOXOXXX`._.H.H.H.H.'.|.OXOXOXOXOXOXOX X`.P.Z.J ; . .                   ",
"            @ # r I +.;.j.(.[.OXOXOX[.].^.~.~.~.].[.OXOXOXOXOXOXOXXX/./.T.' y # #                   ",
"        . 1 p Q ! / &.-.a.!././.XXOXXX[.[.[.[.[.XXOXOXOXOXOXOXOXOXOXoXXX!.f._ Q p < .               ",
"      . . > p W ! ! ! ~ 0.t.S.I.Y.U.U.U.U.U.U.U.W./.XXOXOXOXOXOXOXOXOXOX{.g.( Q p , . .             ",
"      . . X # > > > > < t B G G G G G G G G G G w.E.[.OXOXOXoXoXOXOXOXOX^.y.g > # X . .             ",
"        . . . . . . . X - k b l b b b b b b n b J { A.Y.W.XX].W.S.A.A.A.w.F ; . . . .               ",
"                  . . $ 8 [ ..X.X.X.X... .X.X.X.S S z J A.[.~.w.G z z z x j X . .                   ",
"                    . $ 8 [ X.X.X.X.X.X.X.X.X.X.| } M A K w.{ K S S M N n 7 $ . .                   ",
"                    . $ 8 [ X.X.X.X.X.X.X.X.X.X.X.X.X.| n x l N | X.X.X.| 0 * . .                   ",
"                    . $ 8 [ X.X.X.X.X.X.X.X.X.X.X.X.X. .{ N N M b S {  ...0 * . .                   ",
"                  . . $ 8 [ X.X.X.X.X.X.X.X.X.X.X.X.X.X.X.X.| M l l M { { 0 % . .                   ",
"              . . . . $ 8 [ X.X.X.X.X.X.X.X.X.X.X.X.X.X.X.X... .{ Z M b k 6 + . .                   ",
"            % * & & & 5 0 } .. . . . ...X. . . .X. . . . . . . . .{ M l c - + . .                   ",
"        . & 7 9 v v v m n N N Z N N N N N N N N N N N N N Z N N N N M n k c + . .                   ",
"      . . O - 7 9 9 9 9 9 9 9 9 9 9 9 9 9 9 9 9 k 9 9 9 9 9 9 9 k k v n m 9 % . .                   ",
"      . . . . + + + . + . + + . + + . + . + . + + . + + . + + . . & 6 m m 7 % . .                   ",
"                                                                  % - 5 5 & X . .                   ",
"                                                                      . . . . . .                   ",
"                                                                                                    ",
"                                                                                                    "
};
