/* XPM */
static char *_b59490834a94e19a1acbdff43c59f1eTAGJT3o6LBJwnHes[] = {
/* columns rows colors chars-per-pixel */
"50 50 188 2 ",
"   c #483b3a",
".  c #222222",
"X  c #2A2723",
"o  c #252B27",
"O  c #262D2A",
"+  c #2F2C23",
"@  c #352C23",
"#  c #3A2E23",
"$  c #273226",
"%  c #27312A",
"&  c #28352C",
"*  c #293A2C",
"=  c #39312B",
"-  c #2B3E31",
";  c #2C3A3C",
":  c #3C3632",
">  c #363A3D",
",  c #453423",
"<  c #483624",
"1  c #493B2C",
"2  c #543C25",
"3  c #593F24",
"4  c #433C36",
"5  c #413E3C",
"6  c #2D4435",
"7  c #2E4939",
"8  c #2F4738",
"9  c #314E3A",
"0  c #335C32",
"q  c #32543D",
"w  c #325633",
"e  c #386A36",
"r  c #4E4527",
"t  c #564A28",
"y  c #584C29",
"u  c #584326",
"i  c #4A413A",
"p  c #56493D",
"a  c #664525",
"s  c #784F27",
"d  c #724C26",
"f  c #64562A",
"g  c #7E5227",
"h  c #7A542F",
"j  c #69523C",
"k  c #72612C",
"l  c #2C3841",
"z  c #365D43",
"x  c #375A4E",
"c  c #3D4B57",
"v  c #364651",
"b  c #31484B",
"n  c #376346",
"m  c #3A674D",
"M  c #3A6B4B",
"N  c #396647",
"B  c #3D744E",
"V  c #3F7C4D",
"C  c #52555B",
"Z  c #5B4E44",
"A  c #775E48",
"S  c #417E4B",
"D  c #5A775B",
"F  c #467052",
"G  c #746253",
"H  c #716359",
"J  c #575A61",
"K  c #4A677E",
"L  c #6C6B6D",
"P  c #6A7D63",
"I  c #7F7871",
"U  c #845627",
"Y  c #925E28",
"T  c #8E7630",
"R  c #8D6E32",
"E  c #A76829",
"W  c #A56729",
"Q  c #BC732B",
"!  c #BA7736",
"~  c #C7792B",
"^  c #CC7C2C",
"/  c #C57F3B",
"(  c #886C54",
")  c #BB7C40",
"_  c #8F7662",
"`  c #967B65",
"'  c #8A7D75",
"]  c #438D40",
"[  c #448C4A",
"{  c #428548",
"}  c #469448",
"|  c #479A49",
" . c #479A45",
".. c #4BA647",
"X. c #A48632",
"o. c #BE9D36",
"O. c #AF9134",
"+. c #D6812C",
"@. c #CA9633",
"#. c #CA892F",
"$. c #E4892D",
"%. c #ED8D2E",
"&. c #E2872D",
"*. c #EE922F",
"=. c #ED8F31",
"-. c #ED9034",
";. c #EC9536",
":. c #F19D32",
">. c #D1AB38",
",. c #D0A837",
"<. c #EBA937",
"1. c #F2A434",
"2. c #F4AC36",
"3. c #E5BA3B",
"4. c #F7BB3A",
"5. c #F5B137",
"6. c #EEC23C",
"7. c #F9C73D",
"8. c #FACB3E",
"9. c #F4C63D",
"0. c #B68751",
"q. c #80816F",
"w. c #958578",
"e. c #90836D",
"r. c #A88A71",
"t. c #B69376",
"y. c #AD896B",
"u. c #CA894B",
"i. c #EB994A",
"p. c #E99F58",
"a. c #EAA15D",
"s. c #F0B751",
"d. c #CB986A",
"f. c #DDAA6C",
"g. c #E6A76D",
"h. c #E9A566",
"j. c #F4AA65",
"k. c #E7AD7B",
"l. c #EBBB76",
"z. c #F7B77D",
"x. c #F8C943",
"c. c #F5C447",
"v. c #F3C557",
"b. c #EEC069",
"n. c #EFC167",
"m. c #3F6481",
"M. c #4F89B6",
"N. c #618EB2",
"B. c #5698CC",
"V. c #6A9EC6",
"C. c #75A1C4",
"Z. c #94989B",
"A. c #AC9583",
"S. c #BA9D87",
"D. c #B9A494",
"F. c #89A7BF",
"G. c #98ACBB",
"H. c #A4A8AC",
"J. c #A9B1B7",
"K. c #BDB7B2",
"L. c #B3B4B4",
"P. c #B5AFAA",
"I. c #C29E80",
"U. c #C9A88E",
"Y. c #C8A589",
"T. c #D2AA89",
"R. c #DAB495",
"E. c #D3AD90",
"W. c #EBB787",
"Q. c #E2B694",
"!. c #E6B995",
"~. c #EBBE99",
"^. c #F4BE91",
"/. c #C8BBAF",
"(. c #C0B3A9",
"). c #D6BDA8",
"_. c #C5BAB0",
"`. c #EFC09B",
"'. c #F3C49E",
"]. c #F4C294",
"[. c #EEC085",
"{. c #DAC1AB",
"}. c #E9C5A6",
"|. c #E1C3A9",
" X c #F4C7A2",
".X c #F4C8A4",
"XX c #FCCBA3",
"oX c #85A6C0",
/* pixels */
"                                                                                                    ",
"                                                                                                    ",
"                                                                                                    ",
"                                                                                                    ",
"                                                                                                    ",
"                                                                                                    ",
"                                                                                                    ",
"                                                                                                    ",
"                                                                                                    ",
"                                                                                                    ",
"                                                                                                    ",
"                                                                                                    ",
"                                                                                                    ",
"                                                                                                    ",
"                                                                                                    ",
"                                                                                                    ",
"                          . . . . . . . . . . . . . . . . . . . . . . . . . . .                     ",
"                        , 2 3 3 2 2 2 2 2 2 3 2 u t y y y y y y y y y y y y y t r                   ",
"                    . # d E ~ ~ ~ ~ ^ ~ ~ ~ ~ ~ #.@.>.>.>.>.>.>.>.>.>.>.>.>.>.o.T y . .             ",
"                  3 a U E +.*.*.:.1.1.1.1.1.1.1.2.4.7.7.8.8.8.x.8.8.8.8.8.8.8.6.o.T k f r           ",
"            . . < U ~ &.$.%.*.1.4.7.7.7.7.7.x.7.8.8.8.8.8.x.8.8.8.8.8.8.8.x.7.x.8.6.3.X.f . .       ",
"            . . < U ~ %.%.%.*.:.1.2.2.2.1.s.s.n.l.b.b.b.n.n.v.v.x.8.8.8.7.4.5.<.@.X.T T T T k y     ",
"            . . , U Q &.%.%.%.%.=.-.-.-.-.a.k.!.Q.Q.Q.Q.Q.Q.l.n.v.x.x.x.9.<.$.^ Y 2 + f O.6.X.f . . ",
"            . . X , a g E ^ -.i.a.g.g.g.g.k.W.'.'.].'.'.'. X].[.[.l.b.b.f.0.R a u ,   t f k f r     ",
"            4 i 4 = . # h / i.h.W.!.!.!.~.'.'.XX'.XXXXXXXXXX.X'.~.!.!.!.T._ 4 X .       . . .       ",
"        . p _ t.r.G 4 : A d.W.W.].'.'.'.'.'.XX'.XXXXXXXXXXXXXX'. X X'.'.R.` 4 . .                   ",
"        . p H t.r._ G G ` Y.!.~.'..X}.{././././.{.{.XXXXXXXXXXXXXX.X|.).D.' > . .                   ",
"            : : Z ' d.Q.R.Q.!.~.'..X/.G.V.V.V.V.G.{..XXXXXXXXXXXXX|.L.oXN.K l . .                   ",
"            . . i ` T.XX'.'.'.'.'..XK.F.B.B.B.B.oXK..XXXXXXXXXXXXX{.J.C.M.m.; . .                   ",
"            . . 1 _ T.XXXXXXXXXXXX.XK.F.B.B.B.B.oXK..XXXXXXXXXXXXX|.J.C.M.m.l . .                   ",
"            . . 1 ( u.j.z.].XXXXXXXX{.(.H.H.H.H._.{.XXXXXXXXXXXXXX}.).P.Z.L > . .                   ",
"            # # u Y +.;.j.].'.XXXX'.'.`.!.!.!.Q.`.'.XXXXXXXXXXXXXX'.~.~.T.` p # #                   ",
"        . 2 s W Q ^ &.;.a.W.~.~. XXX X'.'.'. X'. XXXXXXXXXXXXXXXXXXXXX X!.f.! W s 2 .               ",
"      . . < s E Q Q Q ! 0.t.S.Y.Y.U.U.U.U.U.U.U.R.~. XXXXXXXXXXXXXXXXXXX^.g./ E s < . .             ",
"      . . X @ , , < < 1 4 C C C J J J J C J J J w.E.'.XX.XXXXXXXXXXXXXXX!.y.j , @ X . .             ",
"        . . . . . . . . - x m m m m m m M m m m L [ A.Y.R..X`.E.S.A.A.A.w.H : . . . .               ",
"                  . X $ 0 ]  .........| | ......F F c L A.~.U.w.J c c c l l o . .                   ",
"                    . $ 0 ] ....................} { S D P w.I P F S B S F z + . .                   ",
"                    . $ 0 ] ..........................} m v x S | ......] e * . .                   ",
"                    . $ 0 ] ..........................| [ S V B B S { | } e * . .                   ",
"                    . $ 0 ] ................................} B x x B [ { e & . .                   ",
"                    . $ 0 ] ................................| } [ { B m z 8 o . .                   ",
"                    . $ w ] | | | | | | ..| | | ..| | | | | | | | [ B x b ; o . .                   ",
"                    . o 6 M V S V V V V V V V V V V V V S V V V V V B M x 7 o . .                   ",
"                    . o 6 n B B B M m z q q q z z z 9 q z q z n M B B B m 9 % . .                   ",
"                    . o 6 n B B B B q 6 . o . . . . o . . . & q m B B B m q % . .                   ",
"                    . o 6 n M n q 6 6 &               . . . & 9 N m x q 8 - O                       ",
"                    . o 6 n N 7 & . .                   . . & 9 n n 7 % . .                         ",
"                    . . % * - - O                       . . o % * 6 *                               ",
"                    . . . . . .                         . . . . . .                                 "
};
