/* XPM */
static char *_a5189e5fee041a5f7bfb6c4528274baVIzM1HJSqTdsVmwb[] = {
/* columns rows colors chars-per-pixel */
"50 50 91 1 ",
"  c #222222",
". c #232222",
"X c #232323",
"o c #242323",
"O c #252423",
"+ c #262424",
"@ c #262524",
"# c #272525",
"$ c #272625",
"% c #282625",
"& c #282626",
"* c #292626",
"= c #2A2727",
"- c #2B2827",
"; c #2B2828",
": c #2C2928",
"> c #2D2928",
", c #2D2929",
"< c #2F2B29",
"1 c #2E2A2A",
"2 c #2F2A2A",
"3 c #2F2B2A",
"4 c #302B2A",
"5 c #302B2B",
"6 c #302C2A",
"7 c #332D2C",
"8 c #332D2D",
"9 c #352E2E",
"0 c #362F2F",
"q c #372F2F",
"w c #36302E",
"e c #37302F",
"r c #39312F",
"t c #393130",
"y c #393131",
"u c #3B3231",
"i c #3B3332",
"p c #3C3332",
"a c #3E3533",
"s c #3F3633",
"d c #3E3434",
"f c #3F3534",
"g c #403535",
"h c #403634",
"j c #403635",
"k c #413636",
"l c #433835",
"z c #433837",
"x c #443936",
"c c #443837",
"v c #453A37",
"b c #473B38",
"n c #463A39",
"m c #473A39",
"M c #483B3A",
"N c #493D39",
"B c #4A3C3B",
"V c #4A3D3B",
"C c #4D3F3B",
"Z c #4D3F3C",
"A c #4E3F3D",
"S c #4E403C",
"D c #4F413D",
"F c #50413E",
"G c #51413F",
"H c #53433F",
"J c #534340",
"K c #544440",
"L c #574641",
"P c #574643",
"I c #584742",
"U c #594743",
"Y c #5A4843",
"T c #5C4945",
"R c #5D4A45",
"E c #5E4A46",
"W c #5F4B47",
"Q c #614C48",
"! c #624D48",
"~ c #624D49",
"^ c #624E48",
"/ c #634E49",
"( c #67514B",
") c #67514C",
"_ c #6B534E",
"` c #6C544E",
"' c #6F5650",
"] c #6F5750",
"[ c #715751",
"{ c #715851",
"} c #775C55",
/* pixels */
"}}}}}}}}}}}}}}'B0@lT}}}}}}}}}}EM:7B)}}}_Se        ",
"}}}}}}}}}{}}}}'G0@lT}{}}}}}[}}^b:7S)}}}_Jt  XX    ",
"________''']''TB7@iP''']'')')]Pz=;bT]__^St--&,&X  ",
"TTTTTTTTEUUTUTPd<@0BEUUTUTTTTTZy==fJTTTPSfee0y,=  ",
"VVVVVVVVBBBBBBbt;X7iBBBBBBBBBBf7@=qfBMBMbbbbzbq,  ",
"MMMMMMMMMMBbbVj0;@7tbBMMbzzdzbf7X=qfbbjfzbMMMby,  ",
"MMMMMMMMMMMMBbb0;@:fbMMMdi5qdMd5@=qjbfq9tfMMMMy,  ",
"MMMMMMMMMMMMMMfe; 7tBbMMf7=1yzd7@=qjjq:=qfMMMMy1  ",
"jjjjfjjjjjjjfjs7* ;7jjjjq=@=7fq1OO9rf7*o-rjjjj9-  ",
"999999999999997;@O*799991=X@=73;OO*77;@o-79999:*  ",
"***************@@  @****@@XXX;@@..O*@@  O*****.O  ",
"::*@ @@-:::;*  O*;*O @*:=;;;:::;-**O.@*::---5:*O  ",
"SVj7O-rbSSVbt-@9lVt< 7fSJBZZSBSSSv7**9nZSVSVZZp:  ",
"((PjO7VT((_Tb:;fPQSe tS)//'^))))(Tv-*fP_((((~_Cr  ",
"{[Tb-tF)][[)S<;lT_Hs*jP_']][[[]{[QV5*v^[[[{{[[Jp  ",
"^^PM9sZT^^^UV--sF^Ss:dbJPUQ^^^^^^Hv:*pJ^^^^^QQMq  ",
"JJBbdbMGJJJZf*-tVJVMddy8gBGJJJJJJMt:@tMJJJJJJJj5  ",
"MMBMMMMMMMbbq;@<svbvBy, =ybMMMMMMjq=@5dbMMbbMMy,  ",
"MMMMMMMMMMbjq@O7sMMMby, ,tMMMMMMMj9*@7jMfiyigMy,  ",
"MMMMMMMMMMBz0=O7dMMMny, =tbMMMMMMf9=@5jbdq1qgMy,  ",
"MMMMMMMMMMMfr-O7dMMBMy, ,ybBMMMMVfq=@7sly=X5pMy,  ",
"iqyiyyyytiyq<O -9ttty1= =1qyyyyyt9:o ;9e=& ,5y5*  ",
",=;,=,1=1=1,OOX**:::1=X X==,,=,,:;* O@--=X X,,*o  ",
"X XX XXXX XX  XO  o XX   X XX XX       XXX        ",
"iidyp9:O@5ersrhrrsrjj9* &1rsrr9-@@<9tsrssrsrtt:*  ",
"PUJPJZr*-pSPFUHUYHYFHj5 1nFUUUVr@:fSTFYHFTFYYYb9  ",
"[[[[[Rv-5V^[{{{{{{[[[Hy dA`[{{Rv=<B^{{{{}{{{{{Jt  ",
"')')`Rh-:bT``````````Fy yZ__``Yh:3bT__``_`___`Sq  ",
"TTTTUSp*:jFTTTTTTTYTUM5 1bUTRYCp;;fSTTTTTYTETTMq  ",
"VVVVVh9O*9jCMVMVVVVVMd5X1dbbVVh7@&qzBBBBVVVVMZt5  ",
"MMMMMhe-:ytjvMMMMVVbMy, :ibbMMjr37tfMMMMBbbVMMt:  ",
"MMMMMvjr9999tlMMMbbVMy,X1ybMMVfsttfbMMMMbbVbMMt:  ",
"MMMMVblzf7==qzMMMMMMMr: :tbbvbbMvMvbBbbVbbBMMBt;  ",
"jjjjsffzt7@@1tffjjjjj9: :9dfvjpjpgddjfjjjjffffq1  ",
"999999997=@X=1qq99999:* =17q99997q9q9999q7q7qq;X  ",
"********@XXXo@&=*****.@ XX@=****=*==****==&===oo  ",
"-:----@XO@--::=&O O*::::,,;;::*O  **;;--@O @=;=X  ",
"VSSSSl7@*elZZZBt-.7sCCCCZBVZSSj9@=9bBSSvt; <dBf1  ",
"(((((Hh-:vU)))TB5*pF((_~/_/_((Ps=;bU)((TV7OsS_S9  ",
"{{[``Pl-:V^{]{)St.sU[[[[[[[[][Yv=7b^{{{_Se-lY{Ft  ",
"^^TTAMqo:vP^^^Ub9.pC^^Q~~~~~QQJd*5gU~~QTFsqzJ^bq  ",
"JJZjt5,X:rCFJJZd:.9vJJJJJJJAJJby*=pMJJJZVlfbZJj1  ",
"MMj9@X  *9jMbbjt-*5pMMMMMMnnMMg5.*ygmmnnbMMMMMt:  ",
"MMfy9:=o*9jVMbbdq5qgMMMMngydgng5**8gmgdufjMMMbt7  ",
"MMbfd5,o&qdMMMbzgpjnMMMMty57dnd5o*9jbu55ifMMMMt1  ",
"MMMMBg5=&qfbMMMMMMMMMMMMp5o*8bd5**9jjy&&1dMMMMi:  ",
"yytty5,XX;qyyyqyyyyyyyyy7=o*5y5,oo,9q,XX,8yyyy1=  ",
",,1:,,oXX=,,,,,1,,,,,,,,*o .=,=Xo. ,,&oX==,,,1=o  ",
"XX                              o                 ",
"                                                  "
};
